<?xml version="1.0" standalone="no"?>
<!DOCTYPE svg PUBLIC "-//W3C//DTD SVG 20010904//EN"
 "http://www.w3.org/TR/2001/REC-SVG-20010904/DTD/svg10.dtd">
<svg version="1.0" xmlns="http://www.w3.org/2000/svg"
 width="600.000000pt" height="600.000000pt" viewBox="0 0 600.000000 600.000000"
 preserveAspectRatio="xMidYMid meet">
<metadata>
Created by potrace 1.11, written by Peter Selinger 2001-2013
</metadata>
<g transform="translate(0.000000,600.000000) scale(0.100000,-0.100000)"
fill="#000000" stroke="none">
<path d="M2735 5989 c-1170 -102 -2188 -897 -2570 -2010 -375 -1089 -98 -2286
715 -3099 907 -907 2285 -1138 3435 -575 757 371 1313 1026 1558 1835 231 762
138 1626 -249 2316 -584 1039 -1707 1635 -2889 1533z m565 -340 c1049 -112
1954 -870 2255 -1888 75 -253 108 -485 108 -761 0 -433 -91 -816 -283 -1200
-403 -802 -1186 -1345 -2091 -1451 -134 -15 -444 -15 -578 0 -745 87 -1403
463 -1846 1056 -287 385 -461 824 -516 1305 -15 136 -15 446 0 580 115 986
738 1808 1657 2184 259 106 502 160 864 190 66 6 320 -3 430 -15z"/>
<path d="M1920 3001 l0 -1651 180 0 180 0 0 1490 0 1490 268 0 c506 0 690 -21
825 -92 78 -41 190 -153 240 -238 66 -114 89 -205 95 -365 4 -123 1 -151 -18
-222 -54 -202 -209 -358 -425 -430 -76 -25 -92 -27 -323 -31 -134 -2 -242 -8
-240 -12 2 -5 221 -365 488 -799 l485 -791 198 0 197 0 -48 77 c-208 332 -743
1205 -741 1207 2 1 40 10 84 18 149 29 263 86 378 189 153 137 261 331 309
554 18 85 15 342 -5 430 -53 234 -182 456 -342 588 -126 104 -260 168 -441
208 -95 22 -122 23 -721 26 l-623 4 0 -1650z"/>
</g>
</svg>
